<svg height="512" viewBox="0 0 256 256" width="512" xmlns="http://www.w3.org/2000/svg"><rect fill="#576fa5" height="150.509" rx="9.852" width="166.982" x="44.509" y="101.491"/><path d="m193.3 101.414h-14.584v-32.114a50.716 50.716 0 1 0 -101.432 0v32.114h-14.584v-32.114a65.3 65.3 0 0 1 130.6 0z" fill="#f4efed"/><path d="m201.639 101.491h-9.852a9.852 9.852 0 0 1 9.852 9.852v130.805a9.852 9.852 0 0 1 -9.852 9.852h9.852a9.852 9.852 0 0 0 9.852-9.852v-130.8a9.852 9.852 0 0 0 -9.852-9.857z" fill="#395288"/><path d="m54.361 252h9.852a9.852 9.852 0 0 1 -9.852-9.852v-130.8a9.852 9.852 0 0 1 9.852-9.852h-9.852a9.852 9.852 0 0 0 -9.852 9.852v130.8a9.852 9.852 0 0 0 9.852 9.852z" fill="#708dc8"/><path d="m83.96 151.319a88.079 88.079 0 0 0 44.04 76.281 88.079 88.079 0 0 0 44.04-76.279l-44.04-25.428z" fill="#fcc24c"/><path d="m128 229.6a2 2 0 0 1 -1-.268 90.335 90.335 0 0 1 -45.04-78.012 2 2 0 0 1 1-1.732l44.04-25.428a2 2 0 0 1 2 0l44.04 25.427a2 2 0 0 1 1 1.732 90.335 90.335 0 0 1 -45.04 78.012 2 2 0 0 1 -1 .269zm-42.032-77.13a86.332 86.332 0 0 0 42.032 72.81 86.332 86.332 0 0 0 42.032-72.81l-42.032-24.27z" fill="#690589"/><path d="m124.274 198.907-23.314-24.007 8.481-8.236 15.191 15.643 25.76-24.329 8.118 8.595z" fill="#f4efed"/><g fill="#690589"><path d="m124.274 200.907a1.994 1.994 0 0 1 -1.434-.606l-23.315-24.008a2 2 0 0 1 .041-2.828l8.482-8.236a2 2 0 0 1 2.828.042l13.816 14.229 24.328-22.976a1.942 1.942 0 0 1 1.429-.544 2 2 0 0 1 1.4.625l8.118 8.6a2 2 0 0 1 -.081 2.827l-34.237 32.334a1.989 1.989 0 0 1 -1.375.541zm-20.486-25.966 20.547 21.159 31.349-29.607-5.372-5.687-24.307 22.957a2 2 0 0 1 -2.808-.061l-13.8-14.209z"/><path d="m201.639 254h-147.278a11.866 11.866 0 0 1 -11.852-11.853v-130.8a11.866 11.866 0 0 1 11.852-11.856h147.278a11.866 11.866 0 0 1 11.852 11.852v130.8a11.866 11.866 0 0 1 -11.852 11.857zm-147.278-150.509a7.861 7.861 0 0 0 -7.852 7.852v130.8a7.861 7.861 0 0 0 7.852 7.857h147.278a7.861 7.861 0 0 0 7.852-7.853v-130.8a7.861 7.861 0 0 0 -7.852-7.852z"/><path d="m193.3 103.414h-14.584a2 2 0 0 1 -2-2v-32.114a48.716 48.716 0 1 0 -97.432 0v32.114a2 2 0 0 1 -2 2h-14.584a2 2 0 0 1 -2-2v-32.114a67.3 67.3 0 0 1 134.6 0v32.114a2 2 0 0 1 -2 2zm-12.584-4h10.584v-30.114a63.3 63.3 0 0 0 -126.6 0v30.114h10.584v-30.114a52.716 52.716 0 1 1 105.432 0z"/><path d="m54.361 151.4a2 2 0 0 1 -2-2v-12a2 2 0 0 1 4 0v12a2 2 0 0 1 -2 2z"/></g></svg>